<svg width="948" height="798" viewBox="0 0 948 798" fill="none" xmlns="http://www.w3.org/2000/svg">
<path d="M127.55 453.479C-126.813 114.683 167.226 40.0407 307.623 157.321C418.931 222.859 390.29 40.7825 511.168 43.817C653.343 47.3861 605.83 201.885 749.584 154.409C890.18 107.975 926.49 299.272 878.192 365.502C830.652 430.693 870.643 493.337 904.783 544.686C1024.55 755.59 661.084 735.41 583.785 654.783C522.875 591.251 462.433 882.067 287.778 695.419C226.165 629.576 137.347 694.46 83.8289 633.165C-1.63495 546.685 161.441 560.47 127.55 453.479Z" fill="#CCC0C4" stroke="#CCC0C4"/>
<path d="M169.193 447.179C-53.86 150.086 203.984 84.6322 327.099 187.476C424.706 244.946 399.59 85.2827 505.59 87.9437C630.263 91.0735 588.599 226.555 714.658 184.922C837.947 144.204 869.787 311.954 827.435 370.031C785.747 427.198 820.815 482.13 850.752 527.158C955.773 712.101 637.051 694.405 569.267 623.703C515.856 567.992 462.854 823.01 309.697 659.337C255.669 601.599 177.784 658.496 130.853 604.746C55.9096 528.911 198.912 541 169.193 447.179Z" stroke="white"/>
<path d="M169.193 447.179C-53.86 150.086 203.984 84.6322 327.099 187.476C424.706 244.946 399.59 85.2827 505.59 87.9437C630.263 91.0735 588.599 226.555 714.658 184.922C837.947 144.204 869.787 311.954 827.435 370.031C785.747 427.198 820.815 482.13 850.752 527.158C955.773 712.101 637.051 694.405 569.267 623.703C515.856 567.992 462.854 823.01 309.697 659.337C255.669 601.599 177.784 658.496 130.853 604.746C55.9096 528.911 198.912 541 169.193 447.179Z" stroke="white"/>
<path d="M165.485 404.825C-14.509 79.8345 249.894 50.5289 357.666 169.354C446.424 239.724 443.546 78.1226 548.167 95.3621C671.221 115.639 611.288 244.088 741.88 220.22C869.604 196.876 878.029 367.413 828.079 419.101C778.912 469.979 806.078 529.22 829.526 577.943C908.065 775.591 594.821 714.152 537.424 634.786C492.197 572.247 404.566 817.531 275.42 634.318C229.861 569.686 144.88 615.31 105.803 555.607C42.0216 470.17 181.995 501.845 165.485 404.825Z" stroke="white"/>
<path d="M165.485 404.825C-14.509 79.8345 249.894 50.5289 357.666 169.354C446.424 239.724 443.546 78.1226 548.167 95.3621C671.221 115.639 611.288 244.088 741.88 220.22C869.604 196.876 878.029 367.413 828.079 419.101C778.912 469.979 806.078 529.22 829.526 577.943C908.065 775.591 594.821 714.152 537.424 634.786C492.197 572.247 404.566 817.531 275.42 634.318C229.861 569.686 144.88 615.31 105.803 555.607C42.0216 470.17 181.995 501.845 165.485 404.825Z" stroke="white"/>
</svg>
