<svg width="948" height="797" viewBox="0 0 948 797" fill="none" xmlns="http://www.w3.org/2000/svg">
<path d="M126.801 452.932C-127.562 114.136 166.477 39.4937 306.874 156.774C418.182 222.312 389.541 40.2355 510.419 43.27C652.594 46.8391 605.081 201.338 748.835 153.862C889.431 107.428 925.741 298.725 877.443 364.955C829.903 430.146 869.894 492.79 904.034 544.139C1023.8 755.043 660.335 734.863 583.036 654.236C522.126 590.704 461.684 881.52 287.029 694.872C225.416 629.029 136.598 693.913 83.08 632.618C-2.38388 546.138 160.692 559.923 126.801 452.932Z" fill="#A48A79" stroke="#CCC0C4"/>
<path d="M168.444 446.632C-54.609 149.539 203.236 84.0852 326.35 186.929C423.957 244.399 398.842 84.7357 504.841 87.3967C629.514 90.5265 587.85 226.008 713.909 184.375C837.198 143.657 869.038 311.407 826.686 369.484C784.998 426.651 820.066 481.583 850.003 526.611C955.024 711.554 636.302 693.858 568.518 623.156C515.107 567.445 462.105 822.463 308.948 658.79C254.92 601.052 177.035 657.949 130.104 604.199C55.1606 528.364 198.163 540.453 168.444 446.632Z" stroke="white"/>
<path d="M168.444 446.632C-54.609 149.539 203.236 84.0852 326.35 186.929C423.957 244.399 398.842 84.7357 504.841 87.3967C629.514 90.5265 587.85 226.008 713.909 184.375C837.198 143.657 869.038 311.407 826.686 369.484C784.998 426.651 820.066 481.583 850.003 526.611C955.024 711.554 636.302 693.858 568.518 623.156C515.107 567.445 462.105 822.463 308.948 658.79C254.92 601.052 177.035 657.949 130.104 604.199C55.1606 528.364 198.163 540.453 168.444 446.632Z" stroke="white"/>
<path d="M164.736 404.278C-15.2579 79.2875 249.146 49.9819 356.917 168.807C445.675 239.177 442.797 77.5756 547.418 94.8151C670.472 115.092 610.539 243.541 741.131 219.673C868.855 196.329 877.28 366.866 827.33 418.554C778.163 469.432 805.329 528.673 828.777 577.396C907.316 775.044 594.072 713.605 536.675 634.239C491.448 571.7 403.817 816.984 274.671 633.771C229.112 569.139 144.131 614.763 105.054 555.06C41.2727 469.623 181.246 501.298 164.736 404.278Z" stroke="white"/>
<path d="M164.736 404.278C-15.2579 79.2875 249.146 49.9819 356.917 168.807C445.675 239.177 442.797 77.5756 547.418 94.8151C670.472 115.092 610.539 243.541 741.131 219.673C868.855 196.329 877.28 366.866 827.33 418.554C778.163 469.432 805.329 528.673 828.777 577.396C907.316 775.044 594.072 713.605 536.675 634.239C491.448 571.7 403.817 816.984 274.671 633.771C229.112 569.139 144.131 614.763 105.054 555.06C41.2727 469.623 181.246 501.298 164.736 404.278Z" stroke="white"/>
</svg>
