<svg width="1512" height="914" viewBox="0 0 1512 914" fill="none" xmlns="http://www.w3.org/2000/svg">
<g clip-path="url(#clip0_155_935)">
<mask id="mask0_155_935" style="mask-type:luminance" maskUnits="userSpaceOnUse" x="1172" y="123" width="350" height="441">
<path d="M1521.27 123H1172.97V563.199H1521.27V123Z" fill="white"/>
</mask>
<g mask="url(#mask0_155_935)">
<path d="M1283.1 158.687C1286.29 156.01 1290.34 153.787 1295.45 152.135C1327.72 141.722 1363.96 137.807 1399.75 138.447C1441.18 139.179 1481.86 145.65 1521.62 153.267C1564.53 161.496 1609.01 172.056 1637.97 194.374C1652.58 205.639 1662.26 219.208 1671.83 232.59C1693.17 262.418 1715.11 292.978 1719.36 325.802C1723.61 358.626 1706.42 394.752 1664.11 412.595C1624.8 429.174 1574.11 426.75 1528.92 434.633C1504.16 438.961 1480.78 446.485 1455.65 449.84C1389.35 458.709 1319.05 435.952 1279.17 400.198C1270.18 392.129 1262.42 383.394 1257.4 373.966C1241.34 343.872 1254.28 310.981 1262.4 279.556C1267.98 257.984 1271.21 236.172 1272.07 214.308C1272.74 197.569 1266.72 172.389 1283.1 158.687Z" fill="white"/>
<path d="M1393.95 458.815C1387.64 457.817 1380.75 457.337 1374.85 459.108C1366.03 461.758 1362.03 469.162 1364.65 475.26C1367.28 481.359 1375.33 486.02 1384.43 488.243C1398.69 491.732 1430.68 493.184 1431.43 479.149C1432.06 467.138 1408.18 461.052 1393.97 458.802L1393.95 458.815Z" fill="white"/>
<path d="M1336.25 452.397C1331.12 446.205 1321.19 441.824 1310.48 441.052C1305.64 440.705 1299.99 441.318 1297.4 444.021C1296.22 445.246 1295.87 446.724 1295.77 448.176C1295.41 453.262 1298.15 458.536 1303.87 461.998C1309.59 465.46 1318.34 466.818 1325.54 464.874C1332.73 462.93 1337.55 457.484 1335.78 452.53" fill="white"/>
<path d="M1462.77 435.872C1407.4 435.872 1350.35 416.417 1313.92 383.766C1303.77 374.672 1296.57 365.976 1291.87 357.188C1277.81 330.836 1285.7 302.406 1293.31 274.908C1294.49 270.621 1295.69 266.36 1296.77 262.112C1302.3 240.7 1305.54 218.808 1306.42 197.05C1306.56 193.348 1306.37 189.22 1306.19 184.853C1305.5 169.3 1304.71 151.669 1317.89 140.657C1321.39 137.727 1325.79 135.397 1330.96 133.733C1361.54 123.866 1396.94 119.205 1436.22 119.897C1479.7 120.67 1522.47 127.847 1558.59 134.771L1557.45 137.328C1521.58 130.457 1479.11 123.32 1436.09 122.561C1397.49 121.881 1362.74 126.436 1332.75 136.116C1328.15 137.608 1324.22 139.685 1321.09 142.295C1308.82 152.548 1309.59 169.672 1310.26 184.773C1310.46 189.18 1310.65 193.348 1310.48 197.117C1309.61 219.008 1306.35 241.019 1300.78 262.551C1299.68 266.799 1298.5 271.087 1297.3 275.375C1289.77 302.526 1281.98 330.609 1295.69 356.296C1300.25 364.831 1307.27 373.3 1317.18 382.182C1359.24 419.893 1429.34 439.64 1491.62 431.304C1505.66 429.427 1519.48 426.164 1532.81 423.009C1543.19 420.558 1553.91 418.015 1564.77 416.124C1579.47 413.554 1594.58 412.089 1611.39 410.558L1611.96 413.195C1595.3 414.713 1580.32 416.164 1565.83 418.694C1555.15 420.558 1544.49 423.075 1534.21 425.512C1520.74 428.694 1506.78 431.997 1492.46 433.914C1482.71 435.219 1472.76 435.858 1462.77 435.858V435.872Z" fill="#5B5C4E"/>
<path d="M1237.17 104.065C1207.6 115.463 1192.43 138.62 1190.33 161.03C1189.41 170.724 1190.63 180.658 1196.23 189.66C1202.38 199.553 1213.4 207.783 1224.84 215.399C1241.24 226.319 1258.9 236.439 1277.6 245.627C1306.76 259.955 1340.52 273.71 1352.28 296.307C1357.45 306.241 1357.71 316.947 1357.9 327.453C1358.53 363.3 1361.05 402.981 1399.16 428.721C1420.2 442.943 1451.33 452.25 1461.47 470.893C1471.89 490.054 1456.14 513.224 1471.68 530.828C1485.09 546.008 1515.13 549.896 1541.21 553.905C1567.3 557.913 1597.13 566.648 1601.12 583.985H1635.69V104.065H1237.17Z" fill="white"/>
<path d="M1323.89 323.685C1325.95 318.532 1324.79 313.072 1323.41 307.826C1321.27 299.756 1318.5 291.567 1311.95 284.589C1292.17 263.483 1245 270.741 1257.72 296.613C1263.56 308.518 1310.87 356.242 1323.89 323.685Z" fill="white"/>
<path d="M1342.35 93.6916C1330.18 105.889 1321.59 119.711 1318.36 134.132C1312.72 159.219 1323.51 184.999 1341.98 207.29C1360.46 229.581 1386.28 248.862 1412.69 267.412C1438.49 285.548 1466.82 305.881 1466.7 330.662C1466.57 353.566 1441.67 373.633 1438.43 396.43C1435.93 414.074 1447.1 431.837 1465.13 445.033C1483.18 458.243 1507.56 467.204 1533.13 473.023C1571.08 481.665 1612.47 483.716 1651.99 478.936V93.6916H1342.33H1342.35Z" fill="#5B5C4E"/>
<path d="M1699.13 100.23C1639.98 64.8359 1514.98 55.9275 1463.22 103.545C1440.29 124.651 1419.12 146.316 1417.23 173.041C1416.56 182.403 1418.76 192.483 1428.28 199.487C1436.79 205.745 1449.6 208.502 1460.82 212.55C1472.03 216.598 1482.91 223.522 1481.92 231.871C1481.29 237.144 1476 241.645 1470.52 245.533C1454.65 256.812 1435.24 266 1421.65 278.477C1408.05 290.954 1401.42 308.598 1414.1 321.474C1422.72 330.236 1438.47 334.95 1454.08 337.001C1469.69 339.051 1485.78 338.892 1501.53 340.383C1530.92 343.139 1558.34 351.489 1587.16 356.149C1614.81 360.61 1644.13 361.595 1671.7 356.921C1699.28 352.248 1724.93 341.595 1740.62 326.042C1753.83 312.965 1759.44 297.279 1763.62 281.833C1772.24 249.874 1775.7 216.944 1766.77 185.026C1757.84 153.107 1735.74 122.134 1699.13 100.23Z" fill="#A48A79"/>
<path d="M1430.46 295.522C1430.07 292.792 1429.7 290.062 1429.32 287.346C1482.45 271.073 1536 254.628 1582.86 231.538C1601.08 222.563 1619.39 212.27 1641.91 209.993C1646.11 209.567 1650.89 209.54 1654.06 211.391C1656.26 212.67 1657.26 214.6 1657.81 216.478C1660.39 225.48 1654.16 234.801 1644.76 241.579C1622.58 257.571 1580.59 266.826 1551.22 275.694C1513.33 287.146 1472.66 295.934 1430.48 295.508L1430.46 295.522Z" fill="#A48A79"/>
<path d="M1516.79 231.538C1482.51 243.216 1442.12 247.051 1404.17 242.218C1403.29 233.935 1416.5 228.449 1427.47 224.255C1463.58 210.446 1493.19 190.565 1525.12 172.882C1557.04 155.198 1593.36 139.086 1634.81 135.331C1637.09 135.118 1639.62 134.998 1641.49 135.877C1643.07 136.622 1643.77 137.927 1644.25 139.166C1648.04 149.006 1643.11 159.592 1634.53 168.048C1621.04 181.324 1600.65 186.85 1583.62 197.316C1562.78 210.113 1542.43 222.816 1516.81 231.538H1516.79Z" fill="#A48A79"/>
</g>
<mask id="mask1_155_935" style="mask-type:luminance" maskUnits="userSpaceOnUse" x="-5" y="123" width="1148" height="230">
<path d="M1142.94 123H-4.83582V352.354H1142.94V123Z" fill="white"/>
</mask>
<g mask="url(#mask1_155_935)">
<path d="M-17.7568 113.426C-6.13812 151.296 53.4615 174.812 111.087 183.161C168.713 191.511 229.31 189.553 285.918 200.459C321.914 207.383 355.549 219.474 383.813 235.626C430.837 262.511 463.19 300.435 516.97 321.195C555.713 336.149 603.633 340.569 647.178 333.206C690.723 325.855 729.384 306.814 752.255 281.46C768.107 263.883 776.327 243.882 788.862 225.2C806.707 198.595 835.662 173.467 877.009 162.868C947.048 144.918 1035.28 172.123 1097.58 144.545C1127.41 131.336 1144 106.382 1138.42 83.0921H-17.7568V113.426Z" fill="#644934"/>
<path d="M896.788 186.384C885.596 189.513 874.202 192.722 864.923 197.876C855.624 203.029 848.583 210.512 848.95 218.489C849.031 220.393 849.56 222.324 850.923 224.002C855.848 230.02 868.83 230.42 878.983 228.822C903.727 224.92 926.252 213.349 936.365 197.969C950.364 176.703 918.398 180.339 896.788 186.384Z" fill="#644934"/>
<path d="M1013.85 186.81C1015.03 189.58 1014.89 192.856 1012.87 196.571C1004.37 212.35 961.271 208.022 963.163 190.392C963.733 185.132 969.085 180.205 976.491 178.128C991.122 174.013 1009.9 177.609 1013.85 186.81Z" fill="#644934"/>
<path d="M593.154 314.084C562.204 314.084 531.377 308.731 504.518 298.371C471.879 285.788 446.729 266.653 422.393 248.17C406.318 235.959 389.693 223.322 371.075 212.67C343.137 196.691 309.542 184.626 273.953 177.782C242.699 171.763 209.552 169.646 177.503 167.595C151.682 165.944 124.985 164.24 99.2447 160.511C68.3359 156.037 39.055 147.501 16.7739 136.476C-9.1496 123.652 -25.7129 107.487 -31.1662 89.7367L-31.2069 89.4704V59.1367H-27.1373V89.3372C-19.2422 114.744 18.3 146.05 100.12 157.901C125.616 161.59 152.19 163.294 177.89 164.932C210.121 166.996 243.472 169.126 275.093 175.212C311.251 182.176 345.355 194.427 373.74 210.659C392.603 221.445 409.309 234.135 425.465 246.426C449.578 264.762 474.525 283.71 506.573 296.081C545.071 310.928 591.974 315.256 635.234 307.959C678.514 300.648 716.341 282.019 739.05 256.825C749.102 245.667 756.223 233.256 763.101 221.258C766.988 214.467 771.016 207.45 775.534 200.699C802.414 160.618 838.898 144.306 864.801 137.661C896.89 129.432 932.926 130.577 967.782 131.682C1010.8 133.04 1051.41 134.332 1084.97 119.471C1114.37 106.448 1130.45 82.2798 1124.93 59.3364L1128.96 58.9236C1134.7 82.879 1117.95 108.099 1087.27 121.682C1052.59 137.035 1009.37 135.663 967.599 134.345C933.17 133.253 897.582 132.121 866.307 140.138C841.136 146.583 805.608 162.522 779.298 201.764C774.822 208.449 770.813 215.439 766.947 222.191C760.008 234.295 752.825 246.812 742.59 258.17C719.332 283.963 680.59 303.045 636.271 310.529C622.15 312.912 607.642 314.084 593.154 314.084Z" fill="#A48A79"/>
<path d="M318.455 59.5094C246.911 48.5637 158.315 53.1843 107.832 90.1894C78.2861 111.841 63.6558 140.817 61.1937 169.486C60.2984 179.806 64.8564 193.801 79.5477 199.593C92.5298 204.707 110.619 198.874 118.006 210.007C128.444 225.733 121.119 247.131 127.508 264.016C142.464 303.564 194.616 308.917 247.786 298.438C278.918 292.299 311.129 283.804 342.872 288.384C372.153 292.619 395.696 307.426 424.712 312.366C472.429 320.489 524.581 305.016 545.051 274.895C569.001 239.661 548.795 195.053 522.424 162.642C484.088 115.543 416.41 78.8975 338.518 63.0649C332.027 61.7466 325.312 60.5482 318.455 59.4962V59.5094Z" fill="#A48A79"/>
<path d="M141.65 114.558C120.508 137.115 130.011 164.586 142.627 189.14C151.621 206.624 161.856 223.922 172.091 241.219C189.183 270.115 206.621 299.41 237.754 324.95C249.169 334.311 263.271 343.472 282.968 347.694C311.78 353.872 346.311 347.6 368.165 336.029C390.019 324.457 401.271 308.585 408.739 292.832C418.201 272.858 424.672 250.341 455.499 237.477C478.085 228.05 508.872 226.159 537.827 226.159C588.006 226.145 638.021 230.606 688.139 229.381C738.256 228.156 790.896 220.113 823.046 200.059C841.665 188.448 852.51 173.388 875.178 163.92C892.555 156.663 915.081 153.507 933.17 146.742C953.193 139.259 966.216 127.234 969.675 114.571H141.65V114.558Z" fill="white"/>
<path d="M582.471 199.514C641.786 208.715 707.307 198.688 754.25 173.241C801.172 147.794 828.418 107.514 825.631 67.6722C825 58.7638 822.863 49.6823 816.413 41.8259C805.527 28.5765 784.039 20.6269 762.674 15.0875C657.637 -12.117 532.049 5.16706 444.185 51.6398C415.047 67.0597 388.594 85.7819 353.596 94.5705C341.468 97.6198 327.51 99.8968 320.449 107.034C317.112 110.403 315.83 114.491 315.586 118.499C314.69 134.465 330.562 149.645 352.029 157.262C382.348 168.021 420.561 163.268 453.607 168.98C497.965 176.637 537.827 192.603 582.451 199.514H582.471Z" fill="#5B5C4E"/>
<path d="M242.292 225C247.664 235.067 254.155 245.121 264.899 253.124C275.642 261.126 291.371 266.892 307.629 266.2C326.777 265.388 342.832 255.92 352.456 245.054C362.061 234.188 366.7 221.804 373.435 210.046C380.17 198.288 389.836 186.53 406.094 179.859C429.291 170.312 459.141 173.454 486.286 175.918C531.194 179.992 576.713 181.284 621.987 179.779C647.3 178.94 672.674 177.209 697.194 172.975C711.173 170.565 725.172 167.209 735.997 160.937C745.988 155.131 752.561 147.208 757.505 139.086C769.45 119.391 771.281 94.5172 748.796 79.2837C738.785 72.5059 725.132 68.4845 711.254 66.0077C670.131 58.6706 620.522 65.7281 596.735 88.8845C582.898 102.36 578.564 120.017 560.332 131.03C549.996 137.275 536.301 140.604 522.566 142.561C484.658 147.981 443.066 143.507 411.466 128.779C389.49 118.539 373.191 104.038 354.837 91.1083C323.949 69.35 266.587 48.2975 229.167 77.4861C218.566 85.7553 219.156 95.9153 219.4 106.142C219.828 123.426 218.647 140.763 220.764 158.021C223.572 180.818 230.795 203.402 242.332 224.987L242.292 225Z" fill="#A48A79"/>
<path d="M452.406 186.264C435.477 187.316 418.445 192.416 409.024 201.684C405.565 205.08 403.204 209.434 405.545 213.229C409.126 219.008 420.826 220.033 430.329 219.687C447.34 219.061 464.228 216.904 480.344 213.296C492.675 210.526 513.471 204.454 503.622 194.374C495.035 185.585 465.836 185.439 452.406 186.277V186.264Z" fill="#A48A79"/>
<path d="M249.76 171.603C249.821 177.689 250.065 183.974 253.931 189.5C257.797 195.039 266.221 199.66 275.5 199.247C283.415 198.888 290.008 195.053 294.383 190.725C298.758 186.397 301.566 181.47 305.859 177.103C313.795 169.047 326.431 163.414 334.835 155.558C344.337 146.676 347.756 135.118 344.032 124.558C337.012 104.651 292.613 85.6887 266.302 104.238C258.062 110.044 257.756 119.458 255.721 126.822C251.591 141.789 249.617 156.383 249.76 171.603Z" fill="#5B5C4E"/>
<path d="M302.563 211.671C302.909 213.895 303.743 216.252 306.287 217.743C309.095 219.394 313.449 219.541 316.969 218.635C320.489 217.73 323.297 215.932 325.699 214.015C334.245 207.223 345.782 191.604 327.001 187.143C307.792 182.589 301.24 203.042 302.563 211.671Z" fill="#5B5C4E"/>
</g>
<mask id="mask2_155_935" style="mask-type:luminance" maskUnits="userSpaceOnUse" x="-5" y="330" width="812" height="459">
<path d="M806.076 330.516H-4.83582V788.798H806.076V330.516Z" fill="white"/>
</mask>
<g mask="url(#mask2_155_935)">
<path d="M-102.608 473.955C-82.8097 456.365 -50.5173 440.266 -18.6318 446.711C-5.26315 449.414 5.70449 455.779 14.4949 462.903C49.168 490.973 53.7056 530.082 49.1884 566.062C47.0111 583.386 43.1043 600.87 47.1942 618.047C56.1067 655.452 103.192 672.217 155.894 658.089C229.9 638.261 289.784 605.584 369.671 593.986C426.625 585.716 479.815 610.724 491.902 648.248C497.111 664.4 492.146 680.779 493.326 697.064C496.297 737.465 563.018 752.605 572.358 789.437C582.756 830.49 514.407 849.519 464.9 854.139C405.565 859.666 345.558 860.904 285.694 860.864C229.615 860.824 172.376 862.129 117.131 854.792C66.6063 848.081 16.9366 833.406 -16.7191 807.84C-39.6718 790.409 -54.0375 768.917 -66.633 747.452C-94.693 699.661 -114.166 650.472 -129.346 600.311C-135.939 578.499 -147.496 556.381 -144.403 533.864C-141.351 511.719 -122.326 491.466 -102.588 473.955H-102.608Z" fill="white"/>
<path d="M274.706 600.444C275.317 599.738 275.907 598.979 275.968 598.167C276.151 596.089 273.099 594.531 270.128 593.759C258.509 590.723 245.324 593.866 234.437 597.914C228.964 599.951 223.673 602.228 218.708 604.785C213.438 607.501 201.575 615.051 208.229 619.818C224.894 631.776 266.241 610.124 274.686 600.43L274.706 600.444Z" fill="white"/>
<path d="M306.185 590.151C318.088 583.679 321.161 561.255 298.066 568.099C287.342 571.282 280.302 580.084 288.461 587.101C295.054 592.774 301.342 592.774 306.185 590.151Z" fill="white"/>
<path d="M-10.1874 339.185C17.486 337.547 48.9035 339.89 66.6063 353.912C82.5796 366.576 82.2947 385.098 75.356 400.877C68.4173 416.657 55.8218 431.185 49.2697 447.044C42.738 462.89 43.4298 481.532 60.3391 493.663C81.5418 508.883 117.599 507.858 148.996 509.283C162.1 509.882 176.466 511.573 184.727 518.258C189.57 522.186 191.544 527.299 192.866 532.266C198.584 553.851 194.413 576.515 181.044 596.595C173.658 607.674 163.585 617.941 156.87 629.193C149.688 641.217 146.452 654.24 147.47 667.13C148.548 680.925 153.961 696.026 142.545 707.637C133.938 716.386 117.904 720.607 102.5 723.217C78.3878 727.318 52.4847 728.783 28.7792 723.79C-0.99003 717.518 -24.0851 701.752 -40.5874 684.361C-57.0897 666.97 -68.1387 647.662 -82.2807 629.393C-117.3 584.145 -171.304 545.089 -195.538 496.912C-202.924 482.225 -207.401 466.525 -203.616 451.265C-200.625 439.174 -192.567 427.842 -183.146 417.269C-143.284 372.501 -90.2571 343.898 -10.167 339.158L-10.1874 339.185Z" fill="#5B5C4E"/>
<path d="M-112.844 449.507C-91.1524 472.238 -58.9821 490.627 -21.6637 501.666C28.7385 516.567 89.7421 519.083 129.36 544.344C152.76 559.257 165.111 580.403 169.201 601.616C173.312 622.828 169.852 644.333 165.579 665.519C163.26 677.117 160.676 688.875 163.321 700.447C165.966 712.018 174.634 723.576 190.038 729.515C204.566 735.121 222.737 734.935 239.239 732.645C295.38 724.855 338.192 696.292 384.586 674.188C402.187 665.812 421.05 658.115 442.09 654.493C503.297 643.947 568.248 671.604 597.203 708.436C605.831 719.422 612.24 731.353 624.307 740.834C642.62 755.202 671.189 761.873 698.699 766.973C726.21 772.06 755.063 776.494 777.548 788.052C800.033 799.611 814.012 820.85 800.908 837.481H-112.844V449.494V449.507Z" fill="white"/>
<path d="M-16.9225 578.592C-4.04219 577.474 9.30614 577.407 21.7185 579.911C54.6824 586.542 74.1555 610.311 74.7456 632.881C75.0915 646.41 70.0249 660.006 73.0567 673.402C76.3938 688.169 89.437 701.792 89.4573 716.732C89.4777 738.171 60.97 756.414 29.1049 761.434C-2.76027 766.44 -36.477 760.661 -66.1038 751.5C-82.1381 746.546 -97.7044 740.448 -109.445 731.766C-144.871 705.533 -139.642 661.271 -127.881 629.512C-116.872 599.778 -59.1651 582.267 -16.9429 578.619L-16.9225 578.592Z" fill="#644934"/>
<path d="M98.8988 634.786C98.4511 629.539 98.4918 624.199 100.791 619.166C103.09 614.133 107.893 609.405 114.994 606.969C117.639 606.063 120.61 605.491 123.581 605.637C129.869 605.943 134.915 609.512 136.787 613.453C138.659 617.395 137.926 621.643 136.868 625.717C133.836 637.236 128.078 648.528 127.569 660.219C127.305 666.344 128.465 672.536 126.593 678.542C121.892 693.616 105.044 682.59 104.454 672.923C103.681 660.299 100.018 647.715 98.9191 634.786H98.8988Z" fill="#644934"/>
<path d="M-38.4102 721.14C-42.9071 721.14 -47.4651 720.98 -52.1045 720.634L-51.6568 717.984C-38.4712 718.929 -25.8758 718.49 -14.257 716.652C23.9567 710.647 44.549 689.807 44.5286 673.255C44.5286 664.946 40.4386 657.17 36.1045 648.927C32.9099 642.855 29.6135 636.583 28.1484 630.125C26.2967 621.962 27.4159 613.64 28.4943 605.61C29.2065 600.297 29.939 594.798 29.817 589.431C29.2879 568.778 11.3816 544.384 -21.7858 537.712C-32.4075 535.582 -44.7791 535.156 -59.5722 536.447L-60.1013 533.811C-44.7181 532.479 -31.7767 532.932 -20.5853 535.169C-4.53065 538.391 9.22467 545.689 19.2156 556.248C28.3722 565.942 33.5813 577.713 33.8866 589.391C34.029 594.891 33.2761 600.457 32.5639 605.837C31.5058 613.72 30.407 621.869 32.1773 629.726C33.5813 635.944 36.8167 642.096 39.9503 648.062C44.203 656.144 48.5982 664.494 48.5982 673.255C48.6186 693.922 22.0033 713.696 -13.3007 719.249C-21.2771 720.5 -29.6809 721.14 -38.4102 721.14Z" fill="#5B5C4E"/>
<path d="M328.975 675.998C327.937 670.499 319.085 667.17 310.844 665.918C295.319 663.575 278.694 665.599 264.512 670.353C250.329 675.093 238.426 682.417 228.638 690.633C224.894 693.775 221.354 697.158 219.95 701.032C218.546 704.907 219.624 709.382 224.06 712.111C244.184 724.455 332.21 692.99 328.995 676.012L328.975 675.998Z" fill="#A48A79"/>
<path d="M212.461 759.902C259.893 768.864 307.426 749.436 354.023 738.783C387.618 731.1 423.593 727.891 459.101 729.396C496.582 730.98 536.973 739.489 556.303 760.555C575.024 780.968 568.533 807.534 552.987 829.052C521.915 872.103 456.577 903.302 384.891 911.425C313.205 919.547 236.92 905.086 181.003 874.619C156.362 861.197 133.43 844.206 118.128 825.683C102.216 806.428 117.212 773.498 141.67 759.57C165.396 746.054 186.111 754.922 212.441 759.902H212.461Z" fill="#A48A79"/>
<path d="M475.074 717.771C494.73 720.487 514.61 724.269 534.531 722.671C542.691 717.93 537.278 709.049 530.095 703.682C515.424 692.71 494.689 685.08 472.551 683.482C453.444 682.097 397.283 689.434 402.96 708.596C407.355 723.443 457.737 715.387 475.074 717.784V717.771Z" fill="#A48A79"/>
<path d="M495.829 768.212C474.545 759.703 446.668 760.981 423.919 767.652C398.992 774.976 378.42 788.465 367.31 804.804C359.09 816.881 358.825 834.312 377.118 839.918C382.978 841.716 389.693 841.862 396.164 841.929C447.034 842.435 595.921 808.199 495.829 768.198V768.212Z" fill="#A48A79"/>
</g>
<mask id="mask3_155_935" style="mask-type:luminance" maskUnits="userSpaceOnUse" x="734" y="531" width="788" height="258">
<path d="M1521.29 531.054H734.125V788.798H1521.29V531.054Z" fill="white"/>
</mask>
<g mask="url(#mask3_155_935)">
<path d="M887.265 651.431C891.864 640.924 894.163 629.832 902.018 620.191C909.872 610.551 925.398 602.401 941.92 603.946C949.673 604.665 956.611 607.395 963.937 609.179C980.988 613.334 1001.28 612.122 1015.95 605.064C1033.02 596.849 1040.16 582.68 1051.49 570.949C1065.41 556.528 1087.45 545.063 1112.95 541.601C1138.46 538.138 1167.13 543.558 1183.53 556.821C1195.48 566.488 1200.69 579.578 1215.17 587.621C1226.31 593.812 1241.55 596.156 1252.51 602.481C1274.49 615.145 1271.11 638.674 1257.44 655.638C1241.89 674.933 1216.07 690.1 1187.16 700.953C1158.24 711.792 1126.21 718.596 1093.96 724.109C1028.91 735.228 957.548 741.047 896.157 723.07C848.278 709.049 877.254 674.281 887.245 651.457L887.265 651.431Z" fill="#A48A79"/>
<path d="M1570.29 702.843C1560.38 701.219 1550 700.433 1540.01 700.34C1510.04 700.047 1479.52 703.922 1450.36 699.368C1415.28 693.895 1386.65 676.651 1367.54 656.637C1348.43 636.623 1337.53 613.813 1326.58 591.322C1316.22 570.057 1302.18 546.301 1270.46 538.085C1247.81 532.213 1221.46 536.261 1200.75 544.637C1180.01 552.999 1163.73 565.223 1147.37 577.034C1116.45 599.378 1082.63 621.603 1039.39 632.016C989.453 644.04 930.301 639.46 886.39 659.127C820.076 688.835 819.587 759.649 750.424 786.414V815.883H1570.29V702.843Z" fill="#644934"/>
<path d="M1373.93 634.466C1373.38 631.656 1373.85 628.594 1376.49 626.357C1393.06 612.282 1414.67 634.573 1420 642.642C1423.54 648.008 1433.22 663.229 1417.58 664.56C1411.78 665.053 1403.78 661.351 1399.69 659.021C1388.58 652.709 1375.86 644.506 1373.93 634.466Z" fill="#644934"/>
<path d="M1447.02 662.376C1447.45 656.624 1451.62 651.204 1459.86 649.846C1464.78 649.034 1470.26 649.886 1474.1 652.056C1480.31 655.572 1481.39 661.551 1481.41 666.917C1481.41 668.715 1481.33 670.566 1480.17 672.19C1477.36 676.092 1465.05 679.115 1458.84 677.543C1450.62 675.453 1446.53 668.715 1447 662.376H1447.02Z" fill="#644934"/>
<path d="M1272.35 561.135C1262.3 554.304 1229.42 544.716 1224.68 559.99C1223.17 564.824 1226.28 569.79 1230.48 573.878C1239.71 582.893 1253.55 597.594 1270.89 600.031C1274.71 600.564 1278.86 600.59 1282.34 599.405C1298.15 593.999 1289.95 579.604 1283.77 571.841C1280.57 567.806 1276.79 564.171 1272.33 561.135H1272.35Z" fill="#A48A79"/>
<path d="M1208.91 591.176C1200.89 590.563 1191.96 593.04 1188.84 597.914C1185.93 602.481 1188.91 608.034 1194.58 611.323C1200.24 614.612 1208.03 615.93 1215.6 616.143C1217.92 616.21 1220.28 616.17 1222.48 615.677C1245.53 610.537 1224.31 592.334 1208.91 591.176Z" fill="#A48A79"/>
<path d="M1570.29 842.262V743.697C1569.68 743.59 1569.09 743.471 1568.46 743.364C1536.39 738.197 1503.79 748.025 1471.72 753.165C1393.97 765.602 1306.78 748.278 1252.72 709.661C1233.87 696.199 1218 679.993 1193.1 671.777C1166.1 662.882 1133.52 665.253 1104.73 671.271C1075.93 677.29 1048.89 686.691 1019.65 691.698C965.829 700.913 902.323 696.159 861.342 720.793C845.165 730.514 835.011 743.484 823.942 755.668C814.256 766.347 803.838 776.827 788.17 784.137C773.011 791.208 775.045 801.169 778.81 812.753C782.249 823.3 789.086 833.233 798.263 842.248H1570.27L1570.29 842.262Z" fill="#5B5C4E"/>
<path d="M834.238 807.187C836.985 806.175 837.84 804.351 839.366 802.58C840.79 800.916 842.235 799.264 843.761 797.64C846.813 794.404 850.15 791.275 853.711 788.279C860.975 782.153 869.298 776.574 878.353 771.567C896.218 761.687 917.055 754.11 939.275 749.316C961.414 744.549 984.997 742.485 1008.23 743.79C1036.15 745.361 1061.69 752.472 1086.8 760.182C1114.21 768.598 1141.39 776.534 1171.49 779.796C1202.52 783.165 1233.06 781.594 1263.77 777.666C1279.03 775.708 1294.25 773.538 1309.73 772.433C1325.54 771.301 1341.21 771.62 1356.8 773.684C1386.46 777.613 1414.59 785.935 1445.11 786.987C1474.37 787.986 1503.22 783.778 1532.26 782.193C1558.81 780.742 1592.31 781.088 1613.04 793.858C1617.84 796.814 1621.36 800.33 1623.11 804.498C1623.7 805.909 1627.71 807.081 1626.86 804.87C1620.35 787.866 1590.64 780.769 1566.83 778.904C1537.02 776.587 1507.21 780.862 1477.66 782.806C1462.18 783.831 1446.53 784.257 1431.07 782.846C1415.77 781.448 1400.95 778.491 1386.18 775.642C1371.45 772.792 1356.55 769.969 1341.23 768.864C1325.46 767.732 1309.59 768.611 1293.98 770.249C1277.85 771.94 1261.93 774.39 1245.82 776.161C1229.83 777.906 1213.67 778.758 1197.45 778.318C1165.2 777.466 1134.84 771.674 1105.6 762.992C1078.86 755.055 1052.55 745.761 1023.45 742.086C1000.26 739.143 976.125 739.675 953.132 743.138C907.186 750.062 864.719 768.718 840.098 795.27C837.026 798.585 833.099 802.327 832.447 806.229C832.325 807.014 832.997 807.613 834.197 807.174L834.238 807.187Z" fill="#644934"/>
<path d="M936.385 780.662C940.557 763.405 950.975 746.307 970.082 734.123C986.543 723.617 1008.15 717.464 1028.36 710.274C1051.72 701.965 1073.71 692.044 1093.88 680.712C1114.94 668.875 1134.19 655.425 1157.92 645.998C1181.64 636.57 1211.63 631.59 1237.33 638.448C1252.33 642.456 1264.78 650.392 1271.32 660.113C1279.03 671.604 1278.86 685.466 1290.83 695.28C1300.6 703.283 1316.53 706.865 1331.95 708.569C1347.38 710.261 1363.27 710.487 1378.18 713.576C1410.37 720.248 1433.51 739.782 1443.4 760.914C1453.29 782.047 1451.72 804.724 1447.77 826.669C1447.1 830.424 1446.29 834.299 1443.36 837.561C1437.9 843.633 1426.29 846.177 1415.52 846.443C1385.71 847.162 1356.76 832.421 1350.49 813.326C1345.93 799.438 1351.57 783.205 1337.89 772.167C1328.29 764.43 1312.01 761.927 1296.85 760.928C1281.69 759.929 1265.82 759.863 1252.29 755.269C1239.71 750.994 1230.68 743.244 1224.31 734.962C1219 728.064 1214.75 720.234 1205.02 715.867C1195.05 711.392 1181.82 711.752 1169.92 713.217C1137.34 717.225 1107.78 728.024 1078.9 738.663C1063.93 744.176 1048.93 749.689 1033.95 755.215C1015.42 762.033 994.968 770.542 991.162 784.244C985.668 804.018 1018.55 822.061 1012.53 841.769C1009.54 851.596 995.639 859.479 980.5 860.491C963.286 861.636 948.981 853.274 940.577 844.166C934.31 837.388 934.473 830.384 934.269 822.687C933.883 808.626 933.028 794.644 936.406 780.689L936.385 780.662Z" fill="#A48A79"/>
</g>
<mask id="mask4_155_935" style="mask-type:luminance" maskUnits="userSpaceOnUse" x="-5" y="123" width="1310" height="666">
<path d="M1304.83 123H-4.83582V788.798H1304.83V123Z" fill="white"/>
</mask>
<g mask="url(#mask4_155_935)">
<path d="M815.457 583.612C815.457 583.612 668.91 654.839 652.774 804.404" stroke="#5B5C4E" stroke-width="2.11" stroke-linecap="round" stroke-linejoin="round"/>
<path d="M806.463 588.459C806.463 588.459 858.228 573.439 870.824 531.054C870.824 531.054 834.543 562.906 806.463 588.459Z" stroke="#5B5C4E" stroke-width="2.11" stroke-linecap="round" stroke-linejoin="round"/>
<path d="M795.658 594.944C795.658 594.944 839.06 557.02 807.48 535.555L795.658 594.944Z" stroke="#5B5C4E" stroke-width="2.11" stroke-linecap="round" stroke-linejoin="round"/>
<path d="M782.167 603.866C782.167 603.866 821.154 589.578 894.875 600.151C894.875 600.151 807.155 624.479 782.167 603.866Z" stroke="#5B5C4E" stroke-width="2.11" stroke-linecap="round" stroke-linejoin="round"/>
<path d="M743.648 634.666C743.648 634.666 741.43 601.602 777.141 573.599C777.141 573.599 771.525 613.001 743.648 634.666Z" stroke="#5B5C4E" stroke-width="2.11" stroke-linecap="round" stroke-linejoin="round"/>
<path d="M739.436 638.607C739.436 638.607 791.344 620.671 851.147 635.079C851.147 635.079 789.106 656.358 739.436 638.607Z" stroke="#5B5C4E" stroke-width="2.11" stroke-linecap="round" stroke-linejoin="round"/>
<path d="M713.716 665.932C713.716 665.932 729.852 631.843 711.478 610.098C711.478 610.098 689.97 650.072 713.716 665.932Z" stroke="#5B5C4E" stroke-width="2.11" stroke-linecap="round" stroke-linejoin="round"/>
<path d="M706.147 675.359C706.147 675.359 738.154 659.687 807.623 675.892C807.623 675.892 744.93 695.12 706.147 675.359Z" stroke="#5B5C4E" stroke-width="2.11" stroke-linecap="round" stroke-linejoin="round"/>
<path d="M683.784 708.956C683.784 708.956 686.185 667.889 661.157 652.536C661.157 652.536 640.952 704.375 683.784 708.956Z" stroke="#5B5C4E" stroke-width="2.11" stroke-linecap="round" stroke-linejoin="round"/>
<path d="M685.615 708.822C685.615 708.822 733.25 686.838 815.558 699.594C815.558 699.594 723.727 725.933 685.615 708.822Z" stroke="#5B5C4E" stroke-width="2.11" stroke-linecap="round" stroke-linejoin="round"/>
<path d="M668.991 739.609C668.991 739.609 724.969 719.795 793.257 720.873C793.257 720.873 709.158 748.424 668.991 739.609Z" stroke="#5B5C4E" stroke-width="2.11" stroke-linecap="round" stroke-linejoin="round"/>
<path d="M669.968 737.212C669.968 737.212 659.468 715.214 633.463 706.093C633.463 706.093 633.301 729.622 669.968 737.212Z" stroke="#5B5C4E" stroke-width="2.11" stroke-linecap="round" stroke-linejoin="round"/>
<path d="M545.723 616.05C545.723 616.05 621.763 703.589 556.527 822.554" stroke="#5B5C4E" stroke-width="2.11" stroke-linecap="round" stroke-linejoin="round"/>
<path d="M550.138 621.789C550.138 621.789 518.008 598.699 530.319 563.186C530.319 563.186 541.755 595.823 550.138 621.789Z" stroke="#5B5C4E" stroke-width="2.11" stroke-linecap="round" stroke-linejoin="round"/>
<path d="M555.103 629.193C555.103 629.193 541.327 590.284 576.835 580.75L555.103 629.193Z" stroke="#5B5C4E" stroke-width="2.11" stroke-linecap="round" stroke-linejoin="round"/>
<path d="M560.882 639.087C560.882 639.087 538.234 619.392 475.867 611.15C475.867 611.15 530.909 649.433 560.882 639.087Z" stroke="#5B5C4E" stroke-width="2.11" stroke-linecap="round" stroke-linejoin="round"/>
<path d="M574.596 671.418C574.596 671.418 593.479 646.41 580.477 616.862C580.477 616.862 564.361 648.501 574.596 671.418Z" stroke="#5B5C4E" stroke-width="2.11" stroke-linecap="round" stroke-linejoin="round"/>
<path d="M575.797 675.399C575.797 675.399 545.071 650.019 491.454 647.835C491.454 647.835 528.264 678.049 575.797 675.399Z" stroke="#5B5C4E" stroke-width="2.11" stroke-linecap="round" stroke-linejoin="round"/>
<path d="M581.433 702.191C581.433 702.191 586.704 672.31 612.159 659.62C612.159 659.62 607.988 695.24 581.433 702.191Z" stroke="#5B5C4E" stroke-width="2.11" stroke-linecap="round" stroke-linejoin="round"/>
<path d="M582.39 711.153C582.39 711.153 565.826 691.951 503.846 688.995C503.846 688.995 542.223 717.771 582.39 711.153Z" stroke="#5B5C4E" stroke-width="2.11" stroke-linecap="round" stroke-linejoin="round"/>
<path d="M582.186 742.032C582.186 742.032 601.68 709.821 628.946 703.549C628.946 703.549 617.612 748.038 582.186 742.032Z" stroke="#5B5C4E" stroke-width="2.11" stroke-linecap="round" stroke-linejoin="round"/>
<path d="M580.843 741.526C580.843 741.526 555.51 713.976 485.39 705.507C485.39 705.507 542.548 746.254 580.843 741.526Z" stroke="#5B5C4E" stroke-width="2.11" stroke-linecap="round" stroke-linejoin="round"/>
<path d="M577.669 768.971C577.669 768.971 544.786 741.234 491.536 726.879C491.536 726.879 542.101 766.84 577.669 768.971Z" stroke="#5B5C4E" stroke-width="2.11" stroke-linecap="round" stroke-linejoin="round"/>
<path d="M578.157 766.907C578.157 766.907 597.692 752.272 622.496 751.021C622.496 751.021 610.389 769.21 578.157 766.907Z" stroke="#5B5C4E" stroke-width="2.11" stroke-linecap="round" stroke-linejoin="round"/>
<path d="M1140.07 220.926C1140.07 220.926 1169.45 122.081 1337.34 59.5894" stroke="#5B5C4E" stroke-width="2.11" stroke-linecap="round" stroke-linejoin="round"/>
<path d="M1142.45 214.694C1142.45 214.694 1143.85 245.906 1099.19 267.611C1099.19 267.611 1122.98 237.97 1142.45 214.694Z" stroke="#5B5C4E" stroke-width="2.11" stroke-linecap="round" stroke-linejoin="round"/>
<path d="M1146.03 206.957C1146.03 206.957 1117.79 242.351 1081.34 234.468L1146.03 206.957Z" stroke="#5B5C4E" stroke-width="2.11" stroke-linecap="round" stroke-linejoin="round"/>
<path d="M1151.48 196.984C1151.48 196.984 1149.08 221.578 1188.21 254.402C1188.21 254.402 1184.53 201.897 1151.48 196.984Z" stroke="#5B5C4E" stroke-width="2.11" stroke-linecap="round" stroke-linejoin="round"/>
<path d="M1173.26 166.61C1173.26 166.61 1134.05 177.555 1114.51 205.506C1114.51 205.506 1158.24 188.355 1173.26 166.61Z" stroke="#5B5C4E" stroke-width="2.11" stroke-linecap="round" stroke-linejoin="round"/>
<path d="M1176.29 163.081C1176.29 163.081 1174.36 195.439 1212.88 219.94C1212.88 219.94 1214.99 181.324 1176.29 163.081Z" stroke="#5B5C4E" stroke-width="2.11" stroke-linecap="round" stroke-linejoin="round"/>
<path d="M1198.67 140.337C1198.67 140.337 1164.94 160.777 1132.99 159.552C1132.99 159.552 1171.59 134.305 1198.67 140.337Z" stroke="#5B5C4E" stroke-width="2.11" stroke-linecap="round" stroke-linejoin="round"/>
<path d="M1206.87 133.133C1206.87 133.133 1200.32 154.772 1244.44 183.428C1244.44 183.428 1243.95 145.238 1206.87 133.133Z" stroke="#5B5C4E" stroke-width="2.11" stroke-linecap="round" stroke-linejoin="round"/>
<path d="M1237.74 109.777C1237.74 109.777 1190.9 125.93 1163.96 119.058C1163.96 119.058 1216.82 90.1229 1237.74 109.777Z" stroke="#5B5C4E" stroke-width="2.11" stroke-linecap="round" stroke-linejoin="round"/>
<path d="M1238.27 110.736C1238.27 110.736 1230.09 142.441 1274.88 178.741C1274.88 178.741 1272.05 123.453 1238.27 110.736Z" stroke="#5B5C4E" stroke-width="2.11" stroke-linecap="round" stroke-linejoin="round"/>
<path d="M1267.98 91.2548C1267.98 91.2548 1265.35 126.316 1291.46 159.899C1291.46 159.899 1292.84 108.02 1267.98 91.2548Z" stroke="#5B5C4E" stroke-width="2.11" stroke-linecap="round" stroke-linejoin="round"/>
<path d="M59.5049 282.192C59.5049 282.192 -83.2166 244.535 -145.075 124.798" stroke="#5B5C4E" stroke-width="2.11" stroke-linecap="round" stroke-linejoin="round"/>
<path d="M50.5924 279.489C50.5924 279.489 97.6982 284.523 121.77 317.333C121.77 317.333 81.8064 296.414 50.5924 279.489Z" stroke="#5B5C4E" stroke-width="2.11" stroke-linecap="round" stroke-linejoin="round"/>
<path d="M39.6655 275.707C39.6655 275.707 87.4021 300.582 68.6412 322.5L39.6655 275.707Z" stroke="#5B5C4E" stroke-width="2.11" stroke-linecap="round" stroke-linejoin="round"/>
<path d="M25.7473 270.314C25.7473 270.314 62.1907 276.533 118.86 257.624C118.86 257.624 39.4009 250.021 25.7473 270.314Z" stroke="#5B5C4E" stroke-width="2.11" stroke-linecap="round" stroke-linejoin="round"/>
<path d="M-15.6814 250.554C-15.6814 250.554 -6.7079 277.825 31.5262 295.695C31.5262 295.695 14.1082 264.349 -15.6814 250.554Z" stroke="#5B5C4E" stroke-width="2.11" stroke-linecap="round" stroke-linejoin="round"/>
<path d="M-20.4225 247.93C-20.4225 247.93 27.7618 255.321 71.8358 235.227C71.8358 235.227 14.3117 226.532 -20.4225 247.93Z" stroke="#5B5C4E" stroke-width="2.11" stroke-linecap="round" stroke-linejoin="round"/>
<path d="M-59.5315 222.603C-59.5315 222.603 -28.3175 230.913 23.0411 208.022C23.0411 208.022 -34.3406 201.085 -59.5315 222.603Z" stroke="#5B5C4E" stroke-width="2.11" stroke-linecap="round" stroke-linejoin="round"/>
<path d="M-87.1642 198.169C-87.1642 198.169 -41.1572 209.447 21.8202 187.569C21.8202 187.569 -61.6477 178.887 -87.1642 198.169Z" stroke="#5B5C4E" stroke-width="2.11" stroke-linecap="round" stroke-linejoin="round"/>
</g>
<path d="M124.395 387.655C124.212 386.483 124.11 385.311 124.924 384.193C126.715 381.676 131.72 381.982 134.081 383.953C138.883 387.961 135.403 395.591 132.88 399.786C130.377 403.954 125.27 409.32 117.212 407.922C113.814 407.336 111.453 405.125 111.494 402.862C111.535 400.092 115.116 398.627 117.985 397.003C120.549 395.538 123.255 393.687 124.313 391.436C124.883 390.198 124.578 388.92 124.375 387.655H124.395Z" fill="#5B5C4E"/>
<path d="M161.306 374.871C159.74 375.311 158.01 375.431 156.443 375.857C153.92 376.549 151.987 378.147 151.641 379.918C151.295 381.689 152.597 383.58 154.937 384.512C156.545 385.151 158.498 385.338 160.35 385.245C165.661 384.978 170.219 382.661 173.8 380.078C175.896 378.56 177.849 376.842 178.562 374.845C179.294 372.847 178.562 370.517 176.079 369.252C169.262 365.79 166.129 373.5 161.286 374.871H161.306Z" fill="#5B5C4E"/>
<path d="M193.517 389.745C197.241 387.482 203.061 388.081 205.095 391.476C206.357 393.594 205.685 396.017 204.342 398.121C199.723 405.352 187.759 409.706 175.835 410.452C171.094 410.745 165.376 410.199 163.26 407.416C161.164 404.673 164.094 401.157 168.347 399.865C172.152 398.694 176.16 398.534 179.965 397.602C186.009 396.11 188.939 393.381 192.703 390.331C192.968 390.118 193.253 389.918 193.558 389.732L193.517 389.745Z" fill="#5B5C4E"/>
<path d="M222.92 380.944C222.147 382.968 221.883 385.111 222.737 387.122C223.633 389.266 225.749 391.117 228.211 392.662C230.449 394.06 233.094 395.271 236.106 395.724C239.138 396.164 242.577 395.724 244.693 394.246C246.809 392.755 247.074 390.171 244.876 388.747C243.268 387.721 240.847 387.468 239.016 386.616C237.612 385.977 236.594 384.978 236.208 383.873C235.272 381.17 237.388 376.935 231.894 375.697C226.929 374.578 223.917 378.413 222.941 380.944H222.92Z" fill="#5B5C4E"/>
<path d="M210.243 435.672C212.4 435.339 214.781 435.273 216.775 435.925C218.769 436.564 220.234 438.069 219.726 439.48C219.136 441.118 216.368 441.984 214.985 443.409C213.804 444.62 213.723 446.138 213.438 447.563C213.153 448.988 212.482 450.546 210.61 451.305C209.023 451.958 206.927 451.851 205.197 451.358C201.534 450.306 198.055 446.738 198.401 444.061C198.869 440.426 205.055 436.471 210.243 435.672Z" fill="#5B5C4E"/>
<path d="M222.737 420.558C219.888 422.396 218.647 426.95 213.092 425.845C204.668 424.154 208.026 417.216 211.057 413.608C214.191 409.906 220.499 406.963 226.97 406.497C234.254 405.978 241.518 409.333 241.091 414.446C240.582 420.425 230.836 418.135 225.057 419.573C224.101 419.813 223.348 420.146 222.737 420.545V420.558Z" fill="#5B5C4E"/>
<path d="M1166.73 432.503C1162.76 430.798 1157.59 432.53 1155.39 434.926C1150.98 439.76 1158.69 444.274 1156.98 449.174C1156.29 451.185 1152.93 454.048 1156.04 455.886C1157.24 456.591 1158.95 456.818 1160.54 456.685C1163.27 456.445 1165.77 455.406 1167.48 454.021C1171.53 450.746 1173.32 446.405 1172.91 442.224C1172.59 438.908 1171.28 434.474 1166.73 432.503Z" fill="#5B5C4E"/>
<path d="M1203.47 444.807C1203.29 443.635 1203.19 442.463 1204 441.345C1205.79 438.828 1210.8 439.134 1213.16 441.105C1217.96 445.113 1214.48 452.743 1211.96 456.938C1209.46 461.106 1204.35 466.472 1196.29 465.074C1192.89 464.488 1190.53 462.277 1190.57 460.014C1190.61 457.244 1194.2 455.779 1197.06 454.155C1199.63 452.69 1202.33 450.839 1203.39 448.589C1203.96 447.35 1203.66 446.072 1203.45 444.807H1203.47Z" fill="#5B5C4E"/>
<path d="M1164.93 475.9C1164.12 477.977 1165.71 480.507 1168.84 481.133C1171.55 481.665 1174.72 480.787 1177.16 481.705C1179.91 482.744 1180.13 485.5 1182.82 486.619C1184.51 487.325 1186.85 487.138 1188.46 486.339C1190.06 485.54 1190.92 484.235 1191.08 482.931C1191.45 479.788 1188.09 477.032 1184.94 474.635C1183.45 473.503 1181.91 472.344 1179.89 471.639C1174.07 469.588 1166.62 471.585 1164.96 475.886L1164.93 475.9Z" fill="#5B5C4E"/>
<path d="M1216.4 485.873C1215.3 487.951 1215.99 490.561 1218.76 491.786C1222.44 493.41 1227.67 491.959 1231.76 493.104C1234.99 493.996 1237.07 496.406 1240.55 496.753C1244.31 497.125 1247.65 494.609 1247.67 492.119C1247.69 489.628 1245.27 487.391 1242.4 485.767C1235.66 481.932 1220.57 477.937 1216.4 485.873Z" fill="#5B5C4E"/>
<path d="M1212.57 504.01C1215.07 503.317 1218.25 503.637 1220.1 504.928C1221.28 505.741 1221.85 506.846 1222.24 507.938C1223.17 510.534 1223.17 513.278 1222.24 515.874C1221.48 518.005 1220.04 520.095 1217.6 521.587C1215.15 523.078 1211.57 523.89 1208.36 523.304C1200.85 521.946 1203.49 517.073 1205.39 513.69C1207.24 510.388 1206.75 505.581 1212.57 503.996V504.01Z" fill="#5B5C4E"/>
</g>
<defs>
<clipPath id="clip0_155_935">
<rect width="1512" height="914" fill="white"/>
</clipPath>
</defs>
</svg>
